<?xml version="1.0" encoding="utf-8"?>
<!-- Uploaded to: SVG Repo, www.svgrepo.com, Generator: SVG Repo Mixer Tools -->
<svg width="800px" height="800px" viewBox="0 -4.04 52.096 52.096" xmlns="http://www.w3.org/2000/svg">
  <g id="Group_129" data-name="Group 129" transform="translate(-375.854 -205.496)">
    <path id="Path_474" data-name="Path 474" d="M379.139,206.792h45.525a1.989,1.989,0,0,1,1.99,1.989v33.011a1.99,1.99,0,0,1-1.99,1.989H379.139a1.99,1.99,0,0,1-1.989-1.989V208.781A1.989,1.989,0,0,1,379.139,206.792Z" fill="#ffffff" stroke="#ff0050" stroke-miterlimit="10" stroke-width="2.592"/>
    <path id="Path_475" data-name="Path 475" d="M383.8,212.6H420a.876.876,0,0,1,.876.875v21.876a.876.876,0,0,1-.876.875H383.8a.876.876,0,0,1-.876-.875V213.479A.876.876,0,0,1,383.8,212.6Z" fill="#ffffff" stroke="#ff0050" stroke-linecap="round" stroke-linejoin="round" stroke-width="1.555"/>
    <path id="Path_476" data-name="Path 476" d="M422.98,244.084v2.15a1.99,1.99,0,0,1-1.989,1.989H382.813a1.99,1.99,0,0,1-1.989-1.989v-2.15" fill="#ffffff" stroke="#ff0050" stroke-miterlimit="10" stroke-width="2.592"/>
    <path id="Path_477" data-name="Path 477" d="M416.84,224.526h-9.529l-2.838,5.42-5.2-12.321-3.714,6.9H387.6" fill="#ffffff" stroke="#ff0050" stroke-linejoin="round" stroke-width="1.555"/>
  </g>
</svg>