<svg xmlns="http://www.w3.org/2000/svg" version="1.1" xmlns:xlink="http://www.w3.org/1999/xlink" xmlns:svgjs="http://svgjs.dev/svgjs" width="1500" height="1500" viewBox="0 0 1500 1500"><rect width="1500" height="1500" fill="#ffffff"></rect><g transform="matrix(0.6666666666666666,0,0,0.6666666666666666,249.78425655976667,249.78425655976673)"><svg viewBox="0 0 343 343" data-background-color="#ffffff" preserveAspectRatio="xMidYMid meet" height="1500" width="1500" xmlns="http://www.w3.org/2000/svg" xmlns:xlink="http://www.w3.org/1999/xlink"><g id="tight-bounds" transform="matrix(1,0,0,1,0.0740000000000407,0.07400000000001228)"><svg viewBox="0 0 342.85155851775386 342.85155851775386" height="342.85155851775386" width="342.85155851775386"><g><svg></svg></g><g><svg viewBox="0 0 342.85155851775386 342.85155851775386" height="342.85155851775386" width="342.85155851775386"><g><path d="M0 171.426c0-94.676 76.75-171.426 171.426-171.426 94.676 0 171.426 76.75 171.426 171.426 0 94.676-76.75 171.426-171.426 171.426-94.676 0-171.426-76.75-171.426-171.426zM171.426 339.895c93.043 0 168.469-75.426 168.469-168.469 0-93.043-75.426-168.469-168.469-168.47-93.043 0-168.469 75.426-168.47 168.47 0 93.043 75.426 168.469 168.47 168.469z" data-fill-palette-color="tertiary" fill="#000000" stroke="transparent"></path><ellipse rx="164.56874808852186" ry="164.56874808852186" cx="171.42577925887693" cy="171.42577925887693" fill="#000000" stroke="transparent" stroke-width="0" fill-opacity="1" data-fill-palette-color="tertiary"></ellipse></g><g transform="matrix(1,0,0,1,64.84655864529837,95.16361620754313)"><svg viewBox="0 0 213.1584412271571 152.5243261026676" height="152.5243261026676" width="213.1584412271571"><g><svg viewBox="0 0 213.1584412271571 152.5243261026676" height="152.5243261026676" width="213.1584412271571"><g><svg viewBox="0 0 213.1584412271571 152.5243261026676" height="152.5243261026676" width="213.1584412271571"><g transform="matrix(1,0,0,1,0,91.7413917142546)"><svg viewBox="0 0 213.1584412271571 60.78293438841298" height="60.78293438841298" width="213.1584412271571"><g id="textblocktransform"><svg viewBox="0 0 213.1584412271571 60.78293438841298" height="60.78293438841298" width="213.1584412271571" id="textblock"><g><svg viewBox="0 0 213.1584412271571 32.78341038253717" height="32.78341038253717" width="213.1584412271571"><g transform="matrix(1,0,0,1,0,0)"><svg width="213.1584412271571" viewBox="2.32 -35.64 235.55 36.230000000000004" height="32.78341038253717" data-palette-color="#ffffff"><path d="M23.12-4.69L32.89-35.08 39.7-35.08 43.92 0 39.45 0 35.79-29.54 35.55-29.54 25.85 0 20.39 0 10.69-29.54 10.45-29.54 6.79 0 2.32 0 6.54-35.08 13.35-35.08 23.12-4.69ZM68.11-4.71L69.33-1.42Q66.62-0.34 64.24 0.12 61.86 0.59 59.98 0.59L59.98 0.59Q57.1 0.59 54.95-0.33 52.81-1.25 51.38-2.91 49.95-4.57 49.23-6.87 48.51-9.18 48.51-11.96L48.51-11.96Q48.51-13.67 48.75-15.38 49-17.09 49.53-18.64 50.07-20.19 50.94-21.53 51.8-22.88 53.05-23.85 54.29-24.83 55.95-25.39 57.61-25.95 59.74-25.95L59.74-25.95Q65.18-25.95 67.94-22.55 70.7-19.14 70.7-12.79L70.7-12.79 70.7-11.45 52.83-11.45Q52.83-9.4 53.27-7.82 53.71-6.25 54.62-5.16 55.54-4.08 56.94-3.52 58.35-2.95 60.28-2.95L60.28-2.95Q61.35-2.95 62.41-3.11 63.47-3.27 64.48-3.53 65.48-3.78 66.39-4.1 67.31-4.42 68.11-4.71L68.11-4.71ZM52.95-14.82L66.48-14.82Q66.28-18.77 64.58-20.59 62.89-22.41 59.74-22.41L59.74-22.41Q56.59-22.41 54.94-20.59 53.29-18.77 52.95-14.82L52.95-14.82ZM79.49-25.39L79.49-31.2 83.69-31.2 83.69-25.39 92.23-25.39 92.23-21.85 83.69-21.85 83.69-7.28Q83.69-5.81 83.77-5.04 83.86-4.27 84.2-3.83L84.2-3.83Q84.83-2.95 86.76-2.95L86.76-2.95Q87.84-2.95 88.84-3.17L88.84-3.17Q89.86-3.39 90.72-3.66L90.72-3.66Q91.4-2.17 91.96-0.39L91.96-0.39Q89.08 0.59 86.15 0.59L86.15 0.59Q84.03 0.59 82.75 0.11 81.46-0.37 80.73-1.44L80.73-1.44Q79.98-2.56 79.73-4.13 79.49-5.69 79.49-8.45L79.49-8.45 79.49-21.85 75.83-21.85 75.83-25.39 79.49-25.39ZM99.75-20.9L99.75-20.9 98.67-24.32Q102.78-25.95 107.27-25.95L107.27-25.95Q111.2-25.95 113.27-24.63L113.27-24.63Q115.64-23.12 115.64-19.48L115.64-19.48 115.64-9.5Q115.64-7.5 115.69-5.4L115.69-5.4Q115.72-4.15 115.93-2.81L115.93-2.81Q116.13-1.54 116.45-0.39L116.45-0.39 112.44 0.49Q111.88-1.15 111.74-3.17L111.74-3.17 111.25-3.22Q108.22 0.59 103.53 0.59L103.53 0.59Q100.11 0.59 98.04-1.31 95.96-3.2 95.96-6.64L95.96-6.64Q95.96-9.2 97.1-10.84 98.23-12.48 100.31-13.6L100.31-13.6Q103.58-15.38 109.47-15.38L109.47-15.38Q110.25-15.38 111.56-15.33L111.56-15.33 111.56-19.04Q111.56-20.8 110.49-21.58 109.42-22.36 107.12-22.36L107.12-22.36Q103.78-22.36 99.75-20.9ZM111.56-7.13L111.56-7.13 111.56-12.26Q110.91-12.3 109.64-12.3L109.64-12.3Q107.49-12.3 105.68-11.94L105.68-11.94Q103-11.4 101.52-10.24 100.04-9.08 100.04-6.91L100.04-6.91Q100.04-3 104.29-3L104.29-3Q106.49-3 108.39-4.17L108.39-4.17Q109.95-5.15 111.56-7.13ZM122.38-1.49L123.84-5.1Q124.84-4.71 125.95-4.37 127.07-4.03 128.22-3.78 129.38-3.54 130.56-3.39 131.73-3.25 132.85-3.25L132.85-3.25Q134.78-3.25 136.34-3.69 137.91-4.13 139.03-4.97 140.15-5.81 140.76-7.04 141.37-8.28 141.37-9.86L141.37-9.86Q141.37-11.45 140.8-12.46 140.22-13.48 139.14-14.16 138.05-14.84 136.46-15.32 134.88-15.8 132.85-16.31L132.85-16.31Q130.61-16.89 128.71-17.61 126.82-18.33 125.44-19.48 124.06-20.63 123.28-22.33 122.5-24.02 122.5-26.56L122.5-26.56Q122.5-28.64 123.33-30.32 124.16-32.01 125.67-33.19 127.19-34.38 129.31-35.01 131.44-35.64 134-35.64L134-35.64Q135.24-35.64 136.54-35.49 137.83-35.33 139.1-35.06 140.37-34.79 141.59-34.4 142.81-34.01 143.89-33.54L143.89-33.54 142.42-29.93Q141.54-30.27 140.63-30.62 139.71-30.96 138.69-31.23 137.66-31.49 136.5-31.65 135.34-31.81 134-31.81L134-31.81Q132.66-31.81 131.44-31.52 130.21-31.23 129.27-30.6 128.33-29.98 127.77-28.98 127.21-27.98 127.21-26.56L127.21-26.56Q127.21-24.98 127.79-23.96 128.36-22.95 129.45-22.27 130.53-21.58 132.12-21.11 133.71-20.63 135.73-20.12L135.73-20.12Q137.98-19.53 139.87-18.81 141.76-18.09 143.14-16.94 144.52-15.8 145.3-14.09 146.08-12.38 146.08-9.86L146.08-9.86Q146.08-7.2 145.09-5.24 144.11-3.27 142.34-1.98 140.57-0.68 138.14-0.05 135.71 0.59 132.85 0.59L132.85 0.59Q127.46 0.59 122.38-1.49L122.38-1.49ZM154.36-20.9L154.36-20.9 153.28-24.32Q157.38-25.95 161.88-25.95L161.88-25.95Q165.81-25.95 167.88-24.63L167.88-24.63Q170.25-23.12 170.25-19.48L170.25-19.48 170.25-9.5Q170.25-7.5 170.3-5.4L170.3-5.4Q170.32-4.15 170.54-2.81L170.54-2.81Q170.74-1.54 171.06-0.39L171.06-0.39 167.05 0.49Q166.49-1.15 166.34-3.17L166.34-3.17 165.86-3.22Q162.83 0.59 158.14 0.59L158.14 0.59Q154.72 0.59 152.65-1.31 150.57-3.2 150.57-6.64L150.57-6.64Q150.57-9.2 151.71-10.84 152.84-12.48 154.92-13.6L154.92-13.6Q158.19-15.38 164.07-15.38L164.07-15.38Q164.86-15.38 166.17-15.33L166.17-15.33 166.17-19.04Q166.17-20.8 165.1-21.58 164.03-22.36 161.73-22.36L161.73-22.36Q158.39-22.36 154.36-20.9ZM166.17-7.13L166.17-7.13 166.17-12.26Q165.51-12.3 164.25-12.3L164.25-12.3Q162.1-12.3 160.29-11.94L160.29-11.94Q157.6-11.4 156.13-10.24 154.65-9.08 154.65-6.91L154.65-6.91Q154.65-3 158.9-3L158.9-3Q161.1-3 163-4.17L163-4.17Q164.56-5.15 166.17-7.13ZM181.8-35.11L181.8-9.86Q181.8-7.86 181.85-6.51 181.89-5.15 181.97-4.13L181.97-4.13Q182.04-3.1 182.2-2.27 182.36-1.44 182.6-0.44L182.6-0.44Q181.58-0.17 180.55 0.06 179.53 0.29 178.5 0.46L178.5 0.46Q178.01-1.12 177.8-2.44 177.6-3.76 177.6-5.03L177.6-5.03 177.6-35.11 181.8-35.11ZM210.87-0.44L210.87-0.44 206.82 0.46Q206.35-1 206.16-2.37L206.16-2.37Q206.06-3 205.92-4.96L205.92-4.96 205.4-4.96Q204.06-2.49 202.08-1.03L202.08-1.03Q199.91 0.59 197.49 0.59L197.49 0.59Q193.85 0.59 191.95-1.17L191.95-1.17Q190.31-2.66 189.68-5.74L189.68-5.74Q189.26-7.84 189.26-11.99L189.26-11.99 189.26-25.39 193.46-25.39 193.46-10.82Q193.46-7.18 194.17-5.62L194.17-5.62Q195.22-3.3 198.4-3.3L198.4-3.3Q200.64-3.3 202.79-5.44L202.79-5.44Q204.23-6.88 205.87-9.67L205.87-9.67 205.87-25.39 210.07-25.39 210.07-9.72Q210.07-6.47 210.24-4.08L210.24-4.08Q210.33-2.59 210.87-0.44ZM232.99-25.34L232.99-35.16 237.19-35.16 237.19-9.59Q237.19-5.3 237.31-3.96L237.31-3.96Q237.43-2.29 237.87-0.39L237.87-0.39 233.82 0.51Q233.4-0.85 233.21-2.25L233.21-2.25Q232.96-3.96 232.94-4.88L232.94-4.88 232.57-4.88Q231.3-2.25 229.77-1L229.77-1Q227.91 0.59 225.18 0.59L225.18 0.59Q222.78 0.59 221.05-0.45 219.32-1.49 218.35-3.34 217.39-5.2 216.94-7.42 216.48-9.64 216.48-12.33L216.48-12.33Q216.48-15.36 217.11-17.77 217.73-20.19 219.02-22.06 220.32-23.93 222.49-24.94 224.66-25.95 227.59-25.95L227.59-25.95Q229.89-25.95 232.99-25.34L232.99-25.34ZM232.99-10.28L232.99-10.28 232.99-21.63Q230.23-22.36 227.91-22.36L227.91-22.36Q225.93-22.36 224.5-21.64 223.08-20.92 222.27-19.62 221.46-18.31 221.1-16.7 220.73-15.09 220.73-13.09L220.73-13.09Q220.73-11.72 220.79-10.68 220.85-9.64 221.01-8.44 221.17-7.23 221.51-6.37 221.86-5.52 222.37-4.79 222.88-4.05 223.7-3.67 224.52-3.3 225.59-3.3L225.59-3.3Q228.18-3.3 230.08-5.37L230.08-5.37Q231.45-6.88 232.99-10.28Z" opacity="1" transform="matrix(1,0,0,1,0,0)" fill="#ffffff" class="wordmark-text-0" data-fill-palette-color="quaternary" id="text-0"></path></svg></g></svg></g><g transform="matrix(1,0,0,1,0,40.52278677200501)"><svg viewBox="0 0 213.1584412271571 20.26014761640797" height="20.26014761640797" width="213.1584412271571"><g transform="matrix(1,0,0,1,0,0)"><svg width="213.1584412271571" viewBox="2.85 -32.45 356.14 33.85" height="20.26014761640797" data-palette-color="#ffffff"><path d="M10.95 0.6Q8.85 0.6 7.1 0.23 5.35-0.15 4.23-0.6 3.1-1.05 3.1-1.1L3.1-1.1 2.85-1.6Q2.9-1.9 3.05-3.1 3.2-4.3 3.33-6.23 3.45-8.15 3.45-10.3L3.45-10.3 5.7-10.55Q5.7-6.8 6.2-5 6.7-3.2 8.05-2.53 9.4-1.85 12.2-1.85L12.2-1.85Q15.35-1.85 17.25-3.33 19.15-4.8 19.15-7.35L19.15-7.35Q19.15-8.85 18.13-10.05 17.1-11.25 15.7-12.1 14.3-12.95 11.55-14.4L11.55-14.4Q8.95-15.75 7.3-16.88 5.65-18 4.53-19.55 3.4-21.1 3.4-23.15L3.4-23.15Q3.4-25.75 4.93-27.88 6.45-30 9.08-31.23 11.7-32.45 14.9-32.45L14.9-32.45Q16.9-32.45 18.6-32.18 20.3-31.9 21.3-31.6 22.3-31.3 22.55-31.2L22.55-31.2 22.7-30.9Q22.65-30.6 22.45-29.5 22.25-28.4 22-26.45 21.75-24.5 21.6-22.45L21.6-22.45 19.65-22.25 19.35-22.5Q19.4-22.7 19.45-23.43 19.5-24.15 19.5-25.1L19.5-25.1Q19.5-27.75 18.2-28.75 16.9-29.75 13.55-29.75L13.55-29.75Q10.8-29.75 9.03-28.38 7.25-27 7.25-24.95L7.25-24.95Q7.25-22.95 8.97-21.48 10.7-20 14.05-18.25L14.05-18.25Q17.3-16.6 19-15.53 20.7-14.45 22-12.85 23.3-11.25 23.3-9.15L23.3-9.15Q23.3-6.35 21.73-4.13 20.15-1.9 17.35-0.65 14.55 0.6 10.95 0.6L10.95 0.6ZM40.92 0.35L40.77 0.1 40.92-1.7Q43.02-1.85 43.75-2.15 44.47-2.45 44.47-3.15L44.47-3.15Q44.47-3.95 44.12-4.85L44.12-4.85 42.92-8.7Q41.92-8.75 38.77-8.75L38.77-8.75Q37.32-8.75 34.47-8.45L34.47-8.45 33.07-4.75Q32.72-3.6 32.72-3.35L32.72-3.35Q32.72-2.55 33.27-2.2 33.82-1.85 35.07-1.85L35.07-1.85 37.22-1.85 37.37-1.65 37.07 0.25Q36.57 0.2 34.8 0.1 33.02 0 31.32 0L31.32 0Q29.72 0 28.45 0.05 27.17 0.1 26.72 0.1L26.72 0.1 27.02-1.95Q28.12-2.1 28.77-2.73 29.42-3.35 30.07-4.85L30.07-4.85 37.92-24.7 41.47-25.35 41.82-25.3Q41.82-25.1 44.1-17.4 46.37-9.7 48.17-4.65L48.17-4.65Q48.67-3.2 49.45-2.63 50.22-2.05 51.92-1.9L51.92-1.9 52.02-1.7 51.77 0.1Q51.27 0.1 49.92 0.05 48.57 0 47.22 0L47.22 0Q45.17 0 43.32 0.15 41.47 0.3 40.92 0.35L40.92 0.35ZM35.27-10.8L38.67-10.8Q40.42-10.8 42.32-11L42.32-11 39.27-20.7 38.92-20.7 35.27-10.8ZM55.5 0.4L55.8-1.7Q57.4-1.95 57.97-2.63 58.55-3.3 58.55-5L58.55-5 58.6-20.85Q58.6-22.1 58.3-22.53 58-22.95 57.1-22.95L57.1-22.95 55.75-22.9 55.6-23.1 55.9-25Q56.15-25 57.4-24.95 58.65-24.9 60.75-24.9L60.75-24.9Q61.85-24.9 63.47-25.05 65.1-25.2 65.6-25.25L65.6-25.25 65.4-23.15Q64.05-23 63.5-22.68 62.95-22.35 62.85-21.85 62.75-21.35 62.6-19.8L62.6-19.8Q62.1-13.1 62.1-4.95L62.1-4.95Q62.1-3.7 62.32-3.13 62.55-2.55 63.22-2.35 63.9-2.15 65.35-2.15L65.35-2.15Q67.75-2.15 68.87-2.55 70-2.95 70.57-4.13 71.15-5.3 71.6-7.85L71.6-7.85 73.8-8.1 73.95-7.8Q73.85-7.15 73.47-4.83 73.1-2.5 72.8 0.05L72.8 0.05 72.55 0.35Q71.4 0.3 67.67 0.15 63.95 0 61.4 0L61.4 0Q59.4 0 57.67 0.18 55.95 0.35 55.5 0.4L55.5 0.4ZM88.62 0.45Q84.17 0.45 81.85-1.75 79.52-3.95 79.52-8.1L79.52-8.1 79.52-20.85Q79.52-22.1 79.22-22.53 78.92-22.95 78.02-22.95L78.02-22.95 76.67-22.9 76.57-23.05 76.87-25Q77.42-25 78.87-24.95 80.32-24.9 81.82-24.9L81.82-24.9Q82.92-24.9 84.37-25.03 85.82-25.15 86.27-25.2L86.27-25.2 86.07-23.2Q84.62-23 84.12-22.55 83.62-22.1 83.52-21L83.52-21 83.22-9.55Q83.22-6 84.87-4.08 86.52-2.15 89.62-2.15L89.62-2.15Q92.77-2.15 94.4-3.73 96.02-5.3 96.02-8.3L96.02-8.3Q96.02-11.4 95.95-15.33 95.87-19.25 95.82-20.85L95.82-20.85Q95.72-22.2 95.47-22.58 95.22-22.95 94.37-22.95L94.37-22.95 92.67-22.9 92.62-23.05 92.92-25Q93.42-25 94.8-24.95 96.17-24.9 97.57-24.9L97.57-24.9Q98.72-24.9 100.05-25.03 101.37-25.15 101.77-25.2L101.77-25.2 101.62-23.2Q99.87-22.95 99.37-22.55 98.87-22.15 98.87-21.05L98.87-21.05 98.87-8.25Q98.87-4.1 96.2-1.83 93.52 0.45 88.62 0.45L88.62 0.45ZM117.3 0.45Q116.65 0.35 114.67 0.18 112.7 0 111.35 0L111.35 0Q110.05 0 108.5 0.18 106.95 0.35 106.5 0.45L106.5 0.45 106.75-1.65Q108.55-1.95 109.2-2.65 109.85-3.35 109.85-4.95L109.85-4.95 109.9-20.85Q109.9-22.1 109.6-22.53 109.3-22.95 108.45-22.95L108.45-22.95Q108-22.95 107.6-22.9 107.2-22.85 107.05-22.85L107.05-22.85 106.95-23.1 107.25-25Q107.75-25 109.07-24.95 110.4-24.9 111.75-24.9L111.75-24.9Q113.55-24.9 115.45-24.98 117.35-25.05 118.05-25.05L118.05-25.05Q122.05-25.05 125.1-23.6 128.15-22.15 129.82-19.53 131.5-16.9 131.5-13.4L131.5-13.4Q131.5-9.5 129.62-6.35 127.75-3.2 124.5-1.38 121.25 0.45 117.3 0.45L117.3 0.45ZM115.4-22.7Q114.6-22.7 114.32-22.53 114.05-22.35 114-21.8L114-21.8Q113.4-7.75 113.4-5.3L113.4-5.3Q113.4-3.95 113.8-3.23 114.2-2.5 115.2-2.23 116.2-1.95 118.15-1.95L118.15-1.95Q122.35-1.95 124.72-4.7 127.1-7.45 127.1-12.4L127.1-12.4Q127.1-17.45 124.1-20.08 121.1-22.7 115.4-22.7L115.4-22.7ZM158.09 0.35L157.94 0.1 158.09-1.7Q160.19-1.85 160.92-2.15 161.64-2.45 161.64-3.15L161.64-3.15Q161.64-3.95 161.29-4.85L161.29-4.85 160.09-8.7Q159.09-8.75 155.94-8.75L155.94-8.75Q154.49-8.75 151.64-8.45L151.64-8.45 150.24-4.75Q149.89-3.6 149.89-3.35L149.89-3.35Q149.89-2.55 150.44-2.2 150.99-1.85 152.24-1.85L152.24-1.85 154.39-1.85 154.54-1.65 154.24 0.25Q153.74 0.2 151.97 0.1 150.19 0 148.49 0L148.49 0Q146.89 0 145.62 0.05 144.34 0.1 143.89 0.1L143.89 0.1 144.19-1.95Q145.29-2.1 145.94-2.73 146.59-3.35 147.24-4.85L147.24-4.85 155.09-24.7 158.64-25.35 158.99-25.3Q158.99-25.1 161.27-17.4 163.54-9.7 165.34-4.65L165.34-4.65Q165.84-3.2 166.62-2.63 167.39-2.05 169.09-1.9L169.09-1.9 169.19-1.7 168.94 0.1Q168.44 0.1 167.09 0.05 165.74 0 164.39 0L164.39 0Q162.34 0 160.49 0.15 158.64 0.3 158.09 0.35L158.09 0.35ZM152.44-10.8L155.84-10.8Q157.59-10.8 159.49-11L159.49-11 156.44-20.7 156.09-20.7 152.44-10.8ZM182.79 0.4L183.09-1.7Q184.69-1.95 185.27-2.63 185.84-3.3 185.84-5L185.84-5 185.89-20.85Q185.89-22.1 185.59-22.53 185.29-22.95 184.39-22.95L184.39-22.95 183.04-22.9 182.89-23.1 183.19-25Q183.44-25 184.69-24.95 185.94-24.9 188.04-24.9L188.04-24.9Q189.14-24.9 190.77-25.05 192.39-25.2 192.89-25.25L192.89-25.25 192.69-23.15Q191.34-23 190.79-22.68 190.24-22.35 190.14-21.85 190.04-21.35 189.89-19.8L189.89-19.8Q189.39-13.1 189.39-4.95L189.39-4.95Q189.39-3.7 189.62-3.13 189.84-2.55 190.52-2.35 191.19-2.15 192.64-2.15L192.64-2.15Q195.04-2.15 196.17-2.55 197.29-2.95 197.87-4.13 198.44-5.3 198.89-7.85L198.89-7.85 201.09-8.1 201.24-7.8Q201.14-7.15 200.77-4.83 200.39-2.5 200.09 0.05L200.09 0.05 199.84 0.35Q198.69 0.3 194.97 0.15 191.24 0 188.69 0L188.69 0Q186.69 0 184.97 0.18 183.24 0.35 182.79 0.4L182.79 0.4ZM217.52 0.35L217.37 0.1 217.52-1.7Q219.62-1.85 220.34-2.15 221.07-2.45 221.07-3.15L221.07-3.15Q221.07-3.95 220.72-4.85L220.72-4.85 219.52-8.7Q218.52-8.75 215.37-8.75L215.37-8.75Q213.92-8.75 211.07-8.45L211.07-8.45 209.67-4.75Q209.32-3.6 209.32-3.35L209.32-3.35Q209.32-2.55 209.87-2.2 210.42-1.85 211.67-1.85L211.67-1.85 213.82-1.85 213.97-1.65 213.67 0.25Q213.17 0.2 211.39 0.1 209.62 0 207.92 0L207.92 0Q206.32 0 205.04 0.05 203.77 0.1 203.32 0.1L203.32 0.1 203.62-1.95Q204.72-2.1 205.37-2.73 206.02-3.35 206.67-4.85L206.67-4.85 214.52-24.7 218.07-25.35 218.42-25.3Q218.42-25.1 220.69-17.4 222.97-9.7 224.77-4.65L224.77-4.65Q225.27-3.2 226.04-2.63 226.82-2.05 228.52-1.9L228.52-1.9 228.62-1.7 228.37 0.1Q227.87 0.1 226.52 0.05 225.17 0 223.82 0L223.82 0Q221.77 0 219.92 0.15 218.07 0.3 217.52 0.35L217.52 0.35ZM211.87-10.8L215.27-10.8Q217.02-10.8 218.92-11L218.92-11 215.87-20.7 215.52-20.7 211.87-10.8ZM255.72 0.7Q250.67-13 248.17-19.35L248.17-19.35 247.92-19.35Q247.72-16.95 247.19-10.4 246.67-3.85 246.67-3.2L246.67-3.2Q246.67-2.55 246.97-2.27 247.27-2 247.97-2L247.97-2 249.57-2 249.67-1.85 249.32 0.15Q248.87 0.15 247.59 0.08 246.32 0 245.07 0L245.07 0Q244.07 0 242.92 0.13 241.77 0.25 241.42 0.3L241.42 0.3 241.62-1.75Q242.92-1.9 243.47-2.53 244.02-3.15 244.22-4.7L244.22-4.7Q244.62-8.1 245.29-14.25 245.97-20.4 245.97-21.15L245.97-21.15Q245.97-22.15 245.19-22.63 244.42-23.1 242.52-23.2L242.52-23.2 242.37-23.45 242.72-25.1Q243.27-25.05 244.67-24.98 246.07-24.9 247.37-24.9L247.37-24.9Q248.47-24.9 249.39-24.95 250.32-25 250.62-25.05L250.62-25.05Q252.12-20.4 253.54-16.32 254.97-12.25 255.89-9.83 256.82-7.4 257.07-6.8L257.07-6.8 257.32-6.8Q257.87-8.2 259.79-13.35 261.72-18.5 263.97-24.95L263.97-24.95Q264.27-25 264.74-24.98 265.22-24.95 265.67-24.95L265.67-24.95Q266.22-24.9 267.27-24.9L267.27-24.9Q268.07-24.9 269.59-25 271.12-25.1 271.62-25.15L271.62-25.15 271.72-25 271.47-23.25Q269.72-23.05 269.02-22.58 268.32-22.1 268.32-21.1L268.32-21.1Q268.32-20.1 268.67-14.75 269.02-9.4 269.37-5.65L269.37-5.65Q269.62-3.4 270.02-2.7 270.42-2 271.37-2L271.37-2 272.52-2.05 272.62-1.9 272.27 0.1Q271.87 0.1 270.72 0.05 269.57 0 268.27 0L268.27 0Q266.97 0 265.32 0.15 263.67 0.3 263.57 0.3L263.57 0.3 263.77-1.75Q265.07-1.9 265.62-2.35 266.17-2.8 266.17-3.7L266.17-3.7Q266.17-4.6 265.64-10.85 265.12-17.1 264.92-19.35L264.92-19.35 264.67-19.35Q261.72-11.8 257.17 0.4L257.17 0.4 255.72 0.7ZM289.34 0.35L289.19 0.1 289.34-1.7Q291.44-1.85 292.16-2.15 292.89-2.45 292.89-3.15L292.89-3.15Q292.89-3.95 292.54-4.85L292.54-4.85 291.34-8.7Q290.34-8.75 287.19-8.75L287.19-8.75Q285.74-8.75 282.89-8.45L282.89-8.45 281.49-4.75Q281.14-3.6 281.14-3.35L281.14-3.35Q281.14-2.55 281.69-2.2 282.24-1.85 283.49-1.85L283.49-1.85 285.64-1.85 285.79-1.65 285.49 0.25Q284.99 0.2 283.21 0.1 281.44 0 279.74 0L279.74 0Q278.14 0 276.86 0.05 275.59 0.1 275.14 0.1L275.14 0.1 275.44-1.95Q276.54-2.1 277.19-2.73 277.84-3.35 278.49-4.85L278.49-4.85 286.34-24.7 289.89-25.35 290.24-25.3Q290.24-25.1 292.51-17.4 294.79-9.7 296.59-4.65L296.59-4.65Q297.09-3.2 297.86-2.63 298.64-2.05 300.34-1.9L300.34-1.9 300.44-1.7 300.19 0.1Q299.69 0.1 298.34 0.05 296.99 0 295.64 0L295.64 0Q293.59 0 291.74 0.15 289.89 0.3 289.34 0.35L289.34 0.35ZM283.69-10.8L287.09-10.8Q288.84-10.8 290.74-11L290.74-11 287.69-20.7 287.34-20.7 283.69-10.8ZM323.96-6.8L323.91-21.25Q323.91-22.9 322.56-22.9L322.56-22.9 321.06-22.9 320.96-23.1 321.31-25.05Q321.76-25 323.01-24.95 324.26-24.9 325.56-24.9L325.56-24.9Q326.66-24.9 328.04-25.03 329.41-25.15 329.81-25.2L329.81-25.2 329.61-23.15Q328.16-22.95 327.54-22.38 326.91-21.8 326.86-20.65L326.86-20.65 326.26 0.85 324.31 1.4Q319.56-5.55 314.71-12.2 309.86-18.85 309.86-18.75L309.86-18.75 309.61-18.75 309.46-3.6Q309.46-2.65 309.76-2.3 310.06-1.95 310.76-1.95L310.76-1.95 312.76-2 312.91-1.85 312.51 0.15Q312.06 0.1 310.74 0.05 309.41 0 307.96 0L307.96 0Q306.81 0 305.51 0.13 304.21 0.25 303.81 0.3L303.81 0.3 304.06-1.75Q305.31-1.9 305.91-2.48 306.51-3.05 306.56-4.2L306.56-4.2 307.11-20.7Q307.11-21.95 306.39-22.43 305.66-22.9 303.61-23.15L303.61-23.15 303.41-23.4 303.76-25.1Q304.16-25.05 305.29-24.98 306.41-24.9 307.56-24.9L307.56-24.9Q308.66-24.9 309.51-24.95 310.36-25 310.61-25.05L310.61-25.05Q314.66-19.1 319.19-12.9 323.71-6.7 323.71-6.8L323.71-6.8 323.96-6.8ZM345.34 0.45Q341.94 0.45 339.31-1.05 336.69-2.55 335.26-5.3 333.84-8.05 333.84-11.65L333.84-11.65Q333.84-15.55 335.61-18.68 337.39-21.8 340.46-23.58 343.54-25.35 347.34-25.35L347.34-25.35Q350.79-25.35 353.44-23.85 356.09-22.35 357.54-19.63 358.99-16.9 358.99-13.3L358.99-13.3Q358.99-9.4 357.21-6.28 355.44-3.15 352.31-1.35 349.19 0.45 345.34 0.45L345.34 0.45ZM346.54-1.95Q350.19-1.95 352.44-4.58 354.69-7.2 354.69-11.55L354.69-11.55Q354.69-14.85 353.61-17.35 352.54-19.85 350.56-21.2 348.59-22.55 345.99-22.55L345.99-22.55Q342.44-22.55 340.26-19.95 338.09-17.35 338.09-13L338.09-13Q338.09-9.7 339.14-7.2 340.19-4.7 342.11-3.33 344.04-1.95 346.54-1.95L346.54-1.95Z" opacity="1" transform="matrix(1,0,0,1,0,0)" fill="#ffffff" class="slogan-text-1" data-fill-palette-color="quaternary" id="text-1"></path></svg></g></svg></g></svg></g></svg></g><g transform="matrix(1,0,0,1,69.6535605222602,0)"><svg viewBox="0 0 73.85132018263671 84.00201532478675" height="84.00201532478675" width="73.85132018263671"><g><svg xmlns="http://www.w3.org/2000/svg" xmlns:xlink="http://www.w3.org/1999/xlink" version="1.1" x="0" y="0" viewBox="9.119 2 81.762 93" enable-background="new 0 0 100 100" xml:space="preserve" height="84.00201532478675" width="73.85132018263671" class="icon-icon-0" data-fill-palette-color="quaternary" id="icon-0"><path fill="#ffffff" d="M26.229 39.642L25.974 39.895V95H43.283V79.423H56.263V95H74.437V40.357L49.958 15.913zM47.611 74.231H34.63V62.116H47.61zM47.611 57.789H34.63V45.673H47.61zM65.783 74.231H52.801V62.116H65.783zM65.783 57.789H52.801V45.673H65.783zM58.956 29.405V34.594H52.801V40.749H47.612V34.594H41.457V29.405H47.612V23.25H52.801V29.405z" data-fill-palette-color="quaternary"></path><polygon fill="#ffffff" points="74.621,26.554 59.497,11.432 50.066,2 40.636,11.432 26.229,25.838 9.119,42.947 14.523,48.349   25.975,36.895 26.229,36.642 49.958,12.913 50.066,12.803 74.621,37.357 85.477,48.215 90.881,42.813 " data-fill-palette-color="quaternary"></polygon></svg></g></svg></g><g></g></svg></g></svg></g></svg></g></svg></g><defs></defs></svg><rect width="342.85155851775386" height="342.85155851775386" fill="none" stroke="none" visibility="hidden"></rect></g></svg></g></svg>